<?xml version="1.0" standalone="no"?><!DOCTYPE svg PUBLIC "-//W3C//DTD SVG 1.1//EN" "http://www.w3.org/Graphics/SVG/1.1/DTD/svg11.dtd"><svg t="1523377041229" class="icon" style="" viewBox="0 0 1024 1024" version="1.1" xmlns="http://www.w3.org/2000/svg" p-id="3175" xmlns:xlink="http://www.w3.org/1999/xlink" width="128" height="128"><defs><style type="text/css"></style></defs><path d="M222.5 580.4h-74.1c-46.4 0-84-37.6-84-84V210c0-46.4 37.6-84 84-84h74.1v454.4zM896.6 580.4H691c-23.7 0-38.1 26.3-25.1 46.1 34.7 52.9 65.4 113.9 71.7 181.1 10.2 109.4-136.2 148.2-190.3 33.2-9.9-21.1-23.4-57.9-37-97.4-32-93.2-117.3-156.9-214.8-162.5V126H736c55.7 0 105.2 35.4 123.1 88.1l96.8 283.4c13.9 40.6-16.3 82.9-59.3 82.9z" p-id="3176" fill="#ffffff"></path></svg>