<?xml version="1.0" standalone="no"?><!DOCTYPE svg PUBLIC "-//W3C//DTD SVG 1.1//EN" "http://www.w3.org/Graphics/SVG/1.1/DTD/svg11.dtd"><svg t="1523377034129" class="icon" style="" viewBox="0 0 1024 1024" version="1.1" xmlns="http://www.w3.org/2000/svg" p-id="1905" xmlns:xlink="http://www.w3.org/1999/xlink" width="128" height="128"><defs><style type="text/css"></style></defs><path d="M718.5 161.5h-61.3c-13.8 0-25 11.2-25 25s11.2 25 25 25h61.3c38.4 0 72.6 24.4 85 60.8l85.4 250c3.2 9.4 1.7 19.4-4 27.5-5.8 8-14.7 12.6-24.6 12.6H678.9c-18.9 0-36.3 10.4-45.3 27-8.9 16.6-8.1 36.6 2.2 52.4 36.1 55 54.9 102.1 59.2 148.4 3.4 36.4-19.4 55.8-39.9 61.4-24.3 6.6-59.9-1.2-80.5-45-7.3-15.6-18-43.7-31.6-83.4-33-96.2-123.6-160.8-225.5-160.8H200c-27.1 0-49.2-22.1-49.2-49.2V260.7c0-27.1 22.1-49.2 49.2-49.2h326.8c13.8 0 25-11.2 25-25s-11.2-25-25-25H200c-54.7 0-99.2 44.5-99.2 99.2v252.6c0 54.7 44.5 99.2 99.2 99.2h117.6c80.5 0 152.1 51 178.2 127 14.2 41.4 25.5 71.2 33.6 88.4 14 29.9 35.4 52.3 61.8 64.9 24.2 11.5 51.6 14.1 77.1 7.1 23.4-6.4 43.9-20.5 57.6-39.7 15-20.9 21.5-46.7 18.9-74.6-5.1-54.7-26.4-109.1-67.2-171.2-0.2-0.3-0.4-0.5 0-1.2 0.4-0.8 0.9-0.8 1.3-0.8h181.4c26.2 0 50-12.2 65.3-33.6 15-21 19-48.2 10.7-72.7l-85.4-250c-19.4-56.5-72.6-94.6-132.4-94.6z" p-id="1906" fill="#ffffff"></path><path d="M297 276.4c-13.8 0-25 11.2-25 25v273.8c0 13.8 11.2 25 25 25s25-11.2 25-25V301.4c0-13.8-11.2-25-25-25z" p-id="1907" fill="#ffffff"></path></svg>