<?xml version="1.0" standalone="no"?><!DOCTYPE svg PUBLIC "-//W3C//DTD SVG 1.1//EN" "http://www.w3.org/Graphics/SVG/1.1/DTD/svg11.dtd"><svg t="1521254888571" class="icon" style="" viewBox="0 0 1024 1024" version="1.1" xmlns="http://www.w3.org/2000/svg" p-id="2568" xmlns:xlink="http://www.w3.org/1999/xlink" width="128" height="128"><defs><style type="text/css"></style></defs><path d="M335.168 520.416m-50.528 0a50.528 50.528 0 1 0 101.056 0 50.528 50.528 0 1 0-101.056 0Z" p-id="2569" fill="#ffffff"></path><path d="M537.248 520.416m-50.528 0a50.528 50.528 0 1 0 101.056 0 50.528 50.528 0 1 0-101.056 0Z" p-id="2570" fill="#ffffff"></path><path d="M739.36 520.416m-50.528 0a50.528 50.528 0 1 0 101.056 0 50.528 50.528 0 1 0-101.056 0Z" p-id="2571" fill="#ffffff"></path><path d="M548.192 823.232h-187.776a302.816 302.816 0 1 1 0-605.632h303.168a302.816 302.816 0 0 1 302.816 302.816v3.712a299.104 299.104 0 0 1-299.104 299.104 25.6 25.6 0 1 0 0 51.2c193.472 0 350.304-156.8 350.304-350.304v-3.712C1017.6 324.896 859.104 166.4 663.584 166.4h-303.168C164.896 166.4 6.4 324.896 6.4 520.416s158.496 354.016 354.016 354.016h187.776a25.6 25.6 0 1 0 0-51.2z" p-id="2572" fill="#ffffff"></path></svg>